# Blender 4.0.2
# www.blender.org
mtllib Grass.mtl
o Plane
v -0.001229 0.153049 -0.076726
v -0.001229 -0.000402 -0.076726
v -0.001229 0.153049 0.076726
v -0.001229 -0.000402 0.076726
v -0.001229 0.382147 -0.076726
v -0.001229 0.382147 0.076726
v -0.001229 0.621134 -0.069377
v -0.001229 0.621134 0.069377
v -0.001229 0.878251 -0.056760
v -0.001229 0.878251 0.056760
v -0.001229 1.143610 0.000000
vn -1.0000 -0.0000 -0.0000
vt 0.000000 0.000000
vt 1.000000 0.000000
vt 1.000000 1.000000
vt 0.000000 1.000000
s 0
f 1/1/1 2/2/1 4/3/1 3/4/1
f 1/1/1 3/4/1 6/4/1 5/1/1
f 5/1/1 6/4/1 8/4/1 7/1/1
f 7/1/1 8/4/1 10/4/1 9/1/1
f 9/1/1 10/4/1 11/1/1
